<?xml version="1.0" encoding="utf-8"?>
<!-- Generator: Adobe Illustrator 18.1.0, SVG Export Plug-In . SVG Version: 6.00 Build 0)  -->
<svg version="1.1" id="Layer_1" xmlns="http://www.w3.org/2000/svg" xmlns:xlink="http://www.w3.org/1999/xlink" x="0px" y="0px" width='150' height='150'
	 viewBox="0 0 100 100" enable-background="new 0 0 100 100" xml:space="preserve">
<polygon fill="#F2F1ED" points="14.4,-1.7 14.4,97.9 99.2,97.9 "/>
<linearGradient id="SVGID_1_" gradientUnits="userSpaceOnUse" x1="-0.8225" y1="48.2009" x2="65.7614" y2="48.2009">
	<stop  offset="0" style="stop-color:#6D3505"/>
	<stop  offset="1" style="stop-color:#FAD8A8"/>
</linearGradient>
<path fill="url(#SVGID_1_)" d="M16.3,36.8c0,0,0.3-0.5-0.7-2.2c-3.4-5-3.2-7.5-2.8-10.2c0.1-2.4,4.3-7.9,5.1-9
	c3.1-3.4,2.5-9,1.7-10.6C17-0.3,13-1.5,13-1.5c2.2,3.1,1.7,5.2,0.8,7.7c-0.9,2.5-4.7,6-7.3,10.4c-2.6,4.4-2.8,9.1-2.3,11.6
	C6.2,36.8,16.3,36.8,16.3,36.8z M16.9,25.4c-0.3,1.3-2.1,7.7,5.6,11.6c0.1-0.4-1.7-5,1.9-8.1c2.1-2.3,6.1-5.6,7.6-9.1
	c0.9-2.5,0.1-9.4-8.3-14.3C25.6,17.8,20.3,17.8,16.9,25.4z M25.7,32.6c-1.9,3.6,2,3.6,2,3.6c-0.4-3.9,4.4-4.7,5.7-8.6
	c0.6-1.4,0.4-4.7,0.4-4.7C30.3,28.7,28.2,28.6,25.7,32.6z M39.3,39.8H-0.8v4.4h40.1V39.8z M36.6,51.6v-5H1.9v5H36.6z M39,54.1H-0.4
	v3.7H39V54.1z M4.9,60.1l5,37.8h16.4l6.1-37.8H4.9z M12.7,93l-1.4-27.4H8.2v-2.1h5.1L14.9,93H12.7z M20.3,93h-2.1V65.6h-3v-2.1h5.1
	V93z M25,93h-2.1l2.3-27.4h-2.7v-2.1h5.1L25,93z M33.5,71.7l-0.6,4.1c9,1.7,15.8,9.6,15.8,19c0,1-0.1,2-0.3,3h4.2c0.1-1,0.2-2,0.2-3
	C52.9,83.3,44.5,73.7,33.5,71.7z M30.5,91.5l-1,6.3h1.8c1-0.6,1.6-1.7,1.6-3C32.9,93.3,31.9,92,30.5,91.5z M36.8,84.2
	c-0.7-0.5-1.2-0.3-1.2-0.3l-1.2,2.4c0.1,0.4,0.4,0.7,0.4,0.7s0.5,0.2,0.8,0.2l1.8-2C37.5,85.2,37.5,84.7,36.8,84.2z M41.6,91.6
	l-2.6,0.8c-0.2,0.3-0.2,0.8-0.2,0.8s0.2,0.5,0.5,0.7l2.7-0.1c0,0,0.3-0.4,0.2-1.2C42.1,91.8,41.6,91.6,41.6,91.6z M32.5,78.2
	l-1.6,10.6c2.3,0.6,4.2,2.5,4.6,5c0.3,1.5,0,2.9-0.6,4.1h11.1c0.3-1.9,0.4-4,0-6C44.8,84.7,39.2,79.5,32.5,78.2z M34.1,88.1
	c0,0-0.9-0.8-1-1.6l1.8-4.1c0,0,1.1-0.3,2.7,0.7c1.6,1.1,1.6,2.2,1.6,2.2L36,88.5C35.2,88.7,34.1,88.1,34.1,88.1z M43.1,95.1l-4.5,0
	c-0.7-0.5-1.1-1.6-1.1-1.6s-0.1-1.2,0.4-1.9l4.2-1.6c0,0,1,0.5,1.4,2.4C43.9,94.3,43.1,95.1,43.1,95.1z M60.7,92.2
	c-0.1-1.5-0.3-2.9-0.6-4.3l4.4-2.7l-1-3l-5,0.4c-0.6-1.3-1.3-2.7-2.1-3.9l3.4-3.9l-1.8-2.5l-4.8,2c-0.5-0.6-1-1-1.5-1.6
	c-0.5-0.5-1-1-1.6-1.5l2-4.8l-2.5-1.8l-3.9,3.4c-1.3-0.8-2.6-1.5-3.9-2l0.4-5.1l-2.9-1l-2.7,4.4c-0.6-0.1-1.1-0.2-1.7-0.3l-0.8,5.3
	C46.2,71.3,55.5,82,55.5,94.9c0,1-0.1,2-0.2,3h5.3c0-0.1,0-0.1,0-0.2l5.1-1.2v-3.2L60.7,92.2z"/>
</svg>
