<?xml version="1.0" encoding="utf-8"?>
<!-- Generator: Adobe Illustrator 18.1.0, SVG Export Plug-In . SVG Version: 6.00 Build 0)  -->
<svg version="1.1" id="Layer_1" xmlns="http://www.w3.org/2000/svg" xmlns:xlink="http://www.w3.org/1999/xlink" x="0px" y="0px" width='150' height='150'
	 viewBox="0 0 100 100" enable-background="new 0 0 100 100" xml:space="preserve">
<g>
	<polygon fill="#F2F1ED" points="15.7,-1.8 15.7,98 100.7,98 	"/>
	<linearGradient id="SVGID_1_" gradientUnits="userSpaceOnUse" x1="0.7001" y1="47.969" x2="67.4827" y2="47.969">
		<stop  offset="0" style="stop-color:#004E36"/>
		<stop  offset="1" style="stop-color:#A4C4B7"/>
	</linearGradient>
	<path fill="url(#SVGID_1_)" d="M17.8,36.5c0,0,0.3-0.5-0.7-2.2c-3.4-5-3.2-7.5-2.8-10.3c0.1-2.4,4.3-7.9,5.2-9.1
		c3.1-3.4,2.5-9,1.7-10.6c-2.7-5.1-6.7-6.2-6.7-6.2c2.2,3.1,1.7,5.3,0.8,7.7c-0.9,2.5-4.7,6-7.3,10.4C5.4,20.8,5.3,25.4,5.7,28
		C7.7,36.6,17.8,36.5,17.8,36.5z M18.4,25.1c-0.3,1.3-2.1,7.7,5.6,11.6c0.1-0.4-1.7-5,1.9-8.2c2.1-2.3,6.2-5.6,7.6-9.2
		c0.9-2.5,0.1-9.4-8.3-14.3C27.2,17.5,21.9,17.5,18.4,25.1z M27.3,32.3c-1.9,3.6,2,3.6,2,3.6c-0.4-3.9,4.4-4.7,5.7-8.6
		c0.6-1.4,0.4-4.7,0.4-4.7C31.9,28.4,29.8,28.3,27.3,32.3z M40.9,39.5H0.7V44h40.2V39.5z M38.2,51.4v-5H3.4v5H38.2z M40.6,53.9H1.1
		v3.7h39.5V53.9z M6.4,59.9l5,37.9h16.5L34,59.9H6.4z M14.3,92.9l-1.4-27.5H9.7v-2.1h5.2l1.6,29.6H14.3z M21.9,92.9h-2.1V65.4h-3
		v-2.1h5.2V92.9z M26.6,92.9h-2.1l2.3-27.5H24v-2.1h5.2L26.6,92.9z M35.1,71.5l-0.6,4.2c9,1.7,15.9,9.6,15.9,19.1c0,1-0.1,2-0.3,3
		h4.3c0.1-1,0.2-2,0.2-3C54.6,83.2,46.2,73.5,35.1,71.5z M32.1,91.4l-1,6.4H33c1-0.6,1.6-1.7,1.6-3C34.5,93.2,33.5,91.9,32.1,91.4z
		 M38.4,84.1c-0.7-0.5-1.2-0.3-1.2-0.3l-1.2,2.4c0.1,0.4,0.5,0.7,0.5,0.7s0.5,0.2,0.8,0.2l1.8-2C39.1,85.1,39.1,84.6,38.4,84.1z
		 M43.3,91.5l-2.6,0.8c-0.2,0.3-0.2,0.8-0.2,0.8s0.2,0.5,0.5,0.7l2.7-0.1c0,0,0.3-0.4,0.2-1.2C43.7,91.7,43.3,91.5,43.3,91.5z
		 M34.2,78.1l-1.6,10.6c2.3,0.6,4.2,2.5,4.6,5c0.3,1.5,0,2.9-0.6,4.1h11.2c0.3-1.9,0.4-4,0-6C46.4,84.6,40.9,79.4,34.2,78.1z
		 M35.7,88c0,0-0.9-0.8-1-1.6l1.9-4.1c0,0,1.1-0.3,2.7,0.7c1.6,1.1,1.6,2.2,1.6,2.2l-3.2,3.2C36.8,88.6,35.7,88,35.7,88z M44.8,95
		l-4.5,0c-0.7-0.5-1.1-1.6-1.1-1.6s-0.1-1.2,0.4-1.9l4.2-1.6c0,0,1,0.5,1.4,2.4C45.6,94.2,44.8,95,44.8,95z M62.4,92.1
		c-0.1-1.5-0.3-2.9-0.6-4.3l4.4-2.7l-1-3l-5.1,0.4c-0.6-1.3-1.3-2.7-2.1-3.9l3.4-3.9l-1.8-2.5l-4.8,2c-0.5-0.6-1-1.1-1.5-1.6
		c-0.5-0.5-1.1-1.1-1.6-1.5l2-4.8l-2.5-1.8l-3.9,3.4c-1.3-0.8-2.6-1.5-3.9-2l0.4-5.1l-2.9-1L38,64c-0.6-0.1-1.1-0.2-1.7-0.3L35.5,69
		c12.3,2.2,21.6,12.9,21.6,25.8c0,1-0.1,2-0.2,3h5.4c0-0.1,0-0.1,0-0.2l5.1-1.2v-3.2L62.4,92.1z"/>
</g>
</svg>
